Coordinates
version=1
nRows=37
nColumns=38
inDegrees=no

Units are S.I. units (second, meters, Newtons, ...)
If the header above contains a line with 'inDegrees', this indicates whether rotational values are in degrees (yes) or radians (no).

endheader
time	pelvis_tilt	pelvis_list	pelvis_rotation	pelvis_tx	pelvis_ty	pelvis_tz	hip_flexion_r	hip_adduction_r	hip_rotation_r	knee_angle_r	ankle_angle_r	subtalar_angle_r	mtp_angle_r	hip_flexion_l	hip_adduction_l	hip_rotation_l	knee_angle_l	ankle_angle_l	subtalar_angle_l	mtp_angle_l	lumbar_extension	lumbar_bending	lumbar_rotation	arm_flex_r	arm_add_r	arm_rot_r	elbow_flex_r	pro_sup_r	wrist_flex_r	wrist_dev_r	arm_flex_l	arm_add_l	arm_rot_l	elbow_flex_l	pro_sup_l	wrist_flex_l	wrist_dev_l
3.1575	-0.13547	-0.0776344	3.12517	-0.0409705	0.929963	0.00255254	-0.256817	-0.141306	-0.101803	0.88228	-0.242155	0	0	0.411265	0.0515077	-0.173875	0.528596	9.98737e-05	0	0	-0.373802	-0.148784	0.182171	0.286936	-0.455972	0.812212	1.56393	1.40555	0	0	0.175761	-0.528978	0.785415	1.65416	1.38133	0	0
3.16749	-0.136969	-0.0838103	3.12084	-0.0402968	0.932089	0.00360306	-0.220771	-0.155957	-0.10287	0.942121	-0.275374	0	0	0.396163	0.0577272	-0.178182	0.541288	0.0163262	0	0	-0.376222	-0.155971	0.168749	0.274635	-0.45121	0.813224	1.53742	1.40667	0	0	0.21556	-0.523162	0.821328	1.65623	1.38988	0	0
3.17748	-0.138382	-0.0888205	3.11683	-0.0393566	0.934558	0.0046381	-0.183476	-0.168073	-0.102212	0.998391	-0.299813	0	0	0.378783	0.0635683	-0.181323	0.549244	0.0337119	0	0	-0.378693	-0.161487	0.155121	0.262183	-0.447507	0.813361	1.51151	1.40672	0	0	0.254805	-0.516767	0.855618	1.65884	1.39852	0	0
3.18748	-0.139521	-0.0924734	3.11309	-0.0381719	0.937348	0.00565245	-0.145206	-0.17735	-0.10002	1.05031	-0.314294	0	0	0.359401	0.0687881	-0.183273	0.552528	0.0514283	0	0	-0.38098	-0.165165	0.141599	0.249333	-0.444929	0.812342	1.48645	1.40564	0	0	0.293251	-0.509752	0.888203	1.66181	1.40682	0	0
3.19747	-0.140219	-0.0946467	3.1096	-0.0367693	0.94043	0.00664529	-0.106227	-0.183638	-0.0966467	1.09717	-0.318464	0	0	0.338311	0.073197	-0.184034	0.551321	0.068786	0	0	-0.382883	-0.166896	0.128354	0.235929	-0.443502	0.810003	1.46244	1.40341	0	0	0.330606	-0.502135	0.91897	1.66505	1.4143	0	0
3.20746	-0.140359	-0.0952929	3.10642	-0.035178	0.943765	0.00762093	-0.0668372	-0.186942	-0.0925654	1.13834	-0.312944	0	0	0.3158	0.0766751	-0.183615	0.545897	0.0852406	0	0	-0.384277	-0.166624	0.115388	0.221933	-0.443214	0.806321	1.43971	1.40005	0	0	0.366519	-0.493996	0.947723	1.66856	1.4205	0	0
3.21745	-0.139872	-0.0944418	3.10359	-0.0334287	0.947303	0.00858775	-0.0273518	-0.187413	-0.088302	1.17327	-0.299149	0	0	0.292135	0.079179	-0.182023	0.536608	0.10041	0	0	-0.385091	-0.164372	0.102638	0.207322	-0.444041	0.801274	1.41844	1.39562	0	0	0.400718	-0.48544	0.974324	1.67239	1.42516	0	0
3.22744	-0.138744	-0.0921836	3.10122	-0.0315521	0.950989	0.00955629	0.0118904	-0.185321	-0.0843854	1.20155	-0.278929	0	0	0.267549	0.0807249	-0.179272	0.523867	0.114066	0	0	-0.385315	-0.160223	0.0900028	0.19208	-0.445949	0.794846	1.39882	1.39029	0	0	0.433024	-0.476585	0.998692	1.67662	1.42824	0	0
3.23744	-0.13701	-0.0886536	3.0994	-0.0295785	0.954758	0.0105373	0.0505391	-0.181023	-0.081302	1.22287	-0.254211	0	0	0.242239	0.0813718	-0.175383	0.508127	0.12612	0	0	-0.384984	-0.154313	0.0773705	0.176192	-0.448898	0.787019	1.38102	1.38422	0	0	0.463356	-0.467557	1.02081	1.68135	1.42988	0	0
3.24743	-0.134749	-0.0840206	3.0982	-0.0275363	0.958544	0.0115398	0.0882437	-0.174934	-0.0794616	1.23712	-0.22675	0	0	0.216355	0.0812089	-0.170401	0.489858	0.136604	0	0	-0.384174	-0.146825	0.0646347	0.159646	-0.452832	0.777765	1.36516	1.37759	0	0	0.491721	-0.45848	1.04074	1.68667	1.43034	0	0
3.25742	-0.132074	-0.0784737	3.09768	-0.0254517	0.962274	0.0125702	0.12467	-0.167487	-0.0791707	1.24429	-0.198009	0	0	0.190009	0.0803394	-0.164406	0.46953	0.145647	0	0	-0.382988	-0.137976	0.0517123	0.142437	-0.457686	0.767051	1.35135	1.37054	0	0	0.518196	-0.449473	1.05855	1.69267	1.42998	0	0
3.26741	-0.129117	-0.0722115	3.09785	-0.023348	0.965877	0.0136304	0.159522	-0.159106	-0.0806155	1.2445	-0.169146	0	0	0.163279	0.0788713	-0.157522	0.447609	0.153449	0	0	-0.381542	-0.128006	0.0385575	0.124569	-0.46339	0.754859	1.33963	1.36319	0	0	0.542909	-0.440636	1.07439	1.69943	1.42914	0	0
3.27741	-0.126017	-0.065438	3.0987	-0.0212446	0.96928	0.0147185	0.192552	-0.150188	-0.0838595	1.23797	-0.141044	0	0	0.136227	0.0769167	-0.149918	0.424537	0.160254	0	0	-0.379953	-0.11718	0.0251706	0.106056	-0.469873	0.741208	1.33005	1.35564	0	0	0.566025	-0.432046	1.08842	1.70699	1.42816	0	0
3.2874	-0.122906	-0.0583594	3.10015	-0.0191561	0.972413	0.015829	0.223571	-0.141092	-0.0888509	1.22497	-0.114361	0	0	0.108907	0.0745957	-0.141796	0.40074	0.166334	0	0	-0.378333	-0.105777	0.0115932	0.0869252	-0.477054	0.726132	1.32258	1.34792	0	0	0.587739	-0.423751	1.10082	1.71535	1.42729	0	0
3.29739	-0.119903	-0.0511796	3.1021	-0.0170927	0.97521	0.016953	0.252448	-0.132127	-0.0954353	1.20581	-0.0895772	0	0	0.0813783	0.072036	-0.133382	0.376616	0.171964	0	0	-0.376781	-0.0940862	-0.00210335	0.0672152	-0.484848	0.709654	1.3172	1.34002	0	0	0.608253	-0.415785	1.11179	1.72451	1.42669	0	0
3.30738	-0.117108	-0.0440914	3.10443	-0.0150596	0.97761	0.0180792	0.279108	-0.123545	-0.103367	1.18085	-0.0670181	0	0	0.0537117	0.0693703	-0.124917	0.352544	0.177412	0	0	-0.375383	-0.0823884	-0.0158219	0.0469881	-0.493165	0.691812	1.31382	1.33196	0	0	0.627763	-0.408167	1.12153	1.73442	1.42639	0	0
3.31737	-0.114596	-0.0372714	3.10698	-0.0130585	0.979562	0.0191935	0.303531	-0.115532	-0.112321	1.15043	-0.04688	0	0	0.0259948	0.0667318	-0.116649	0.328885	0.182926	0	0	-0.374198	-0.0709529	-0.0294417	0.0263268	-0.501905	0.672678	1.31231	1.32377	0	0	0.646453	-0.400905	1.13023	1.745	1.42638	0	0
3.32737	-0.112416	-0.0308752	3.10957	-0.0110884	0.98102	0.0202792	0.325742	-0.108203	-0.121915	1.1149	-0.0292405	0	0	-0.00166733	0.0642502	-0.108827	0.305982	0.18873	0	0	-0.373261	-0.0600277	-0.0428218	0.0053286	-0.510958	0.652356	1.31249	1.31553	0	0	0.664478	-0.394004	1.13805	1.75615	1.42658	0	0
3.33736	-0.110593	-0.025034	3.11199	-0.00914733	0.981954	0.0213175	0.345797	-0.10161	-0.131718	1.07459	-0.0140743	0	0	-0.0291628	0.0620464	-0.101678	0.284146	0.195023	0	0	-0.372587	-0.0498322	-0.0558101	-0.0158988	-0.520205	0.630979	1.31417	1.3073	0	0	0.681965	-0.38746	1.14517	1.76777	1.42687	0	0
3.34735	-0.109136	-0.0198495	3.11408	-0.00723349	0.982342	0.0222879	0.363767	-0.0957367	-0.141274	1.02982	-0.00126275	0	0	-0.0563878	0.0602236	-0.0953881	0.263651	0.201964	0	0	-0.372185	-0.0405461	-0.0682561	-0.0372421	-0.529514	0.608703	1.31711	1.29918	0	0	0.699001	-0.381269	1.15171	1.77969	1.42716	0	0
3.35734	-0.108045	-0.0153865	3.11567	-0.00534682	0.982181	0.0231699	0.379716	-0.0905072	-0.150129	0.980878	0.00940241	0	0	-0.0832577	0.0588539	-0.0900786	0.244718	0.209668	0	0	-0.372064	-0.0322945	-0.0800316	-0.0585906	-0.538743	0.585682	1.32108	1.29122	0	0	0.71563	-0.375432	1.15779	1.79179	1.42734	0	0
3.36733	-0.10731	-0.0116705	3.1167	-0.00349028	0.98148	0.0239445	0.393701	-0.0858001	-0.15785	0.928087	0.0182194	0	0	-0.109709	0.0579691	-0.0857934	0.227515	0.218203	0	0	-0.372231	-0.0251385	-0.0910493	-0.0798416	-0.54774	0.562058	1.32583	1.28346	0	0	0.731851	-0.36995	1.16348	1.8039	1.42737	0	0
3.37733	-0.106909	-0.00868982	3.11713	-0.00167006	0.980264	0.0245961	0.405779	-0.0814661	-0.164042	0.871793	0.0255723	0	0	-0.135696	0.0575576	-0.0824952	0.212153	0.22759	0	0	-0.372684	-0.0190741	-0.101273	-0.100896	-0.556341	0.537963	1.33114	1.27593	0	0	0.74761	-0.364832	1.16884	1.81587	1.42722	0	0
3.38732	-0.106811	-0.00640089	3.11702	0.000104773	0.978567	0.0251135	0.416011	-0.0773495	-0.168366	0.812415	0.0319023	0	0	-0.161183	0.0575627	-0.0800729	0.198693	0.237808	0	0	-0.373414	-0.0140363	-0.110722	-0.121658	-0.564378	0.513523	1.3368	1.26864	0	0	0.762809	-0.360084	1.17391	1.82753	1.42691	0	0
3.39731	-0.106975	-0.00473442	3.11651	0.00182256	0.976438	0.0254909	0.424471	-0.0733088	-0.170553	0.750472	0.0376758	0	0	-0.186139	0.0578847	-0.0783556	0.187156	0.248787	0	0	-0.374402	-0.00990633	-0.119472	-0.142024	-0.571682	0.48887	1.34259	1.26162	0	0	0.777294	-0.355718	1.17869	1.83872	1.42646	0	0
3.4073	-0.107335	-0.00360694	3.11576	0.00346885	0.973932	0.0257283	0.431274	-0.0692375	-0.170416	0.686627	0.0433498	0	0	-0.210511	0.058391	-0.0771333	0.177546	0.260406	0	0	-0.375596	-0.00652439	-0.127673	-0.161855	-0.578095	0.464186	1.34828	1.2549	0	0	0.790845	-0.351761	1.18313	1.84928	1.42595	0	0
3.41729	-0.107828	-0.00291821	3.11503	0.00502711	0.971108	0.025832	0.436562	-0.0650713	-0.167884	0.621716	0.0493373	0	0	-0.234246	0.0589165	-0.0761579	0.169853	0.272503	0	0	-0.376942	-0.00369584	-0.135502	-0.181029	-0.583474	0.439637	1.3537	1.24854	0	0	0.803217	-0.348228	1.18718	1.85906	1.42543	0	0
3.42729	-0.108384	-0.00255898	3.11456	0.00647921	0.968033	0.0258131	0.440519	-0.0607977	-0.163018	0.556765	0.0559637	0	0	-0.257276	0.0592746	-0.0751574	0.164074	0.284861	0	0	-0.378365	-0.00120499	-0.143163	-0.199421	-0.587706	0.415404	1.35869	1.24254	0	0	0.814138	-0.345131	1.19077	1.86792	1.42494	0	0
3.43728	-0.108931	-0.00241012	3.11463	0.00780597	0.964768	0.0256866	0.44337	-0.0564524	-0.156047	0.492986	0.0634175	0	0	-0.279514	0.0592598	-0.0738581	0.16023	0.297217	0	0	-0.379785	0.00117871	-0.15086	-0.216908	-0.590715	0.391682	1.36313	1.23692	0	0	0.823319	-0.342474	1.19379	1.87569	1.42456	0	0
3.44727	-0.109409	-0.00233848	3.11549	0.00898778	0.961378	0.0254685	0.445364	-0.0521008	-0.147378	0.431744	0.0716979	0	0	-0.300864	0.0586479	-0.0720162	0.158377	0.309264	0	0	-0.381123	0.00369479	-0.158774	-0.23338	-0.592461	0.368663	1.36696	1.23169	0	0	0.83048	-0.340247	1.19618	1.88225	1.42434	0	0
3.45726	-0.109769	-0.00220278	3.11735	0.0100054	0.957923	0.0251736	0.446776	-0.0478223	-0.137584	0.374507	0.0805831	0	0	-0.32121	0.0572078	-0.0694498	0.158615	0.320655	0	0	-0.382298	0.00658007	-0.167066	-0.248717	-0.592945	0.346559	1.37017	1.22686	0	0	0.835329	-0.338455	1.19782	1.8875	1.42435	0	0
3.46725	-0.109975	-0.00186051	3.12036	0.0108414	0.954456	0.0248129	0.447889	-0.0436914	-0.127361	0.322769	0.0896224	0	0	-0.340419	0.0547178	-0.0660681	0.161091	0.330993	0	0	-0.383242	0.0100523	-0.175849	-0.262798	-0.592209	0.325583	1.37282	1.22242	0	0	0.837588	-0.337112	1.19861	1.89136	1.42467	0	0
3.47725	-0.110012	-0.00117895	3.12461	0.0114816	0.951026	0.0243929	0.448974	-0.0397617	-0.117473	0.27795	0.0981606	0	0	-0.358341	0.0509846	-0.0618859	0.165992	0.339823	0	0	-0.3839	0.0142924	-0.185171	-0.275516	-0.59033	0.305935	1.37502	1.21834	0	0	0.837012	-0.33624	1.1984	1.89381	1.42537	0	0
3.48724	-0.109885	-4.35475e-05	3.13007	0.0119155	0.947673	0.0239149	0.450261	-0.0360529	-0.108664	0.241291	0.105372	0	0	-0.374823	0.0458585	-0.0570253	0.173538	0.346631	0	0	-0.384245	0.0194308	-0.194995	-0.286798	-0.587413	0.287771	1.3769	1.21461	0	0	0.833412	-0.33585	1.19711	1.89482	1.42646	0	0
3.49723	-0.10962	0.00163461	3.13665	0.012137	0.94443	0.023376	0.451925	-0.0325489	-0.101577	0.213742	0.110321	0	0	-0.389689	0.039239	-0.0517021	0.183991	0.350852	0	0	-0.384272	0.0255433	-0.205212	-0.296596	-0.583589	0.271224	1.37866	1.2112	0	0	0.826661	-0.335951	1.19464	1.89444	1.42794	0	0
3.50722	-0.109244	0.00391665	3.14422	0.0121436	0.941322	0.0227703	0.454089	-0.029204	-0.0966824	0.195887	0.112054	0	0	-0.402731	0.0310731	-0.0462069	0.197653	0.351875	0	0	-0.383981	0.0326528	-0.215666	-0.304878	-0.57901	0.256425	1.38048	1.20807	0	0	0.816685	-0.336562	1.19089	1.89272	1.42976	0	0
3.51722	-0.108787	0.00684506	3.15258	0.011938	0.938368	0.0220903	0.456817	-0.0259452	-0.0942461	0.187885	0.109702	0	0	-0.413699	0.0213407	-0.0408861	0.214871	0.34906	0	0	-0.383382	0.0407443	-0.226166	-0.311613	-0.573843	0.243513	1.38252	1.20521	0	0	0.803458	-0.337704	1.18577	1.8898	1.43184	0	0
